<?xml version="1.0" encoding="UTF-8"?>
<svg width="291" height="291" version="1.1" viewBox="0 0 582 582" xmlns="http://www.w3.org/2000/svg">
 <g>
  <path d="m582 291c0 161-130 291-291 291-161 0-291-130-291-291 0-161 130-291 291-291 161 0 291 130 291 291z" fill="#ff0" fill-rule="evenodd" stop-color="#000000"/>
  <path d="m281 30.9c-138 0-250 112-250 250h60c0-105 84.7-190 190-190zm20 0v60c105 0 190 84.7 190 190h60c0-138-112-250-250-250zm-1.3 66.6 10.5 53.3-40.9 35.7 51.4 17.6 16.6-14.5c12.1 5.56 23.1 13.2 32.5 22.6 20.2 20.2 32.6 47.8 32.6 78.8 0 61.9-49.5 111-111 111s-111-49.5-111-111c0-24.3 7.7-46.6 20.8-64.9l6.1 22.8 26.8-100-100 26.9 25.3 6.79c-24.3 29.6-38.9 67.6-38.9 109 0 94.3 77.1 171 171 171s171-77.1 171-171c0-47.2-19.2-90.2-50.2-121-16.3-16.3-36-29.4-57.8-38.1l-3.26-16.5zm-269 203c0 138 112 250 250 250v-60c-105 0-190-84.7-190-190zm460 0c0 105-84.7 190-190 190v60c138 0 250-112 250-250z" color="#000000" color-rendering="auto" dominant-baseline="auto" fill="#f60" fill-rule="evenodd" image-rendering="auto" shape-rendering="auto" solid-color="#000000" stop-color="#000000" style="font-feature-settings:normal;font-variant-alternates:normal;font-variant-caps:normal;font-variant-east-asian:normal;font-variant-ligatures:normal;font-variant-numeric:normal;font-variant-position:normal;font-variation-settings:normal;inline-size:0;isolation:auto;mix-blend-mode:normal;shape-margin:0;shape-padding:0;text-decoration-color:#000000;text-decoration-line:none;text-decoration-style:solid;text-indent:0;text-orientation:mixed;text-transform:none;white-space:normal"/>
  <g>
   <g transform="translate(-349 -221)">
    <g fill="#fff" fill-rule="evenodd" stroke="#000" stroke-width="5">
     <path d="m746 289h-20v20h20zm37.4 20.3h-20v20h20zm-78.7-33.1h-20v20h20zm-54.3-8.61-14.1 14.1 14.1 14.1 14.1-14.1zm220 220-14.1 14.1 14.1 14.1 14.1-14.1zm5.53-40.2h-20v20h20zm-12.8-41.3h-20v20h20zm-20.3-37.4h-20v20h20zm-26.9-32.6h-20v20h20z" stop-color="#000000" style="font-variation-settings:normal"/>
     <path d="m863 487a7 7 0 0 0 7 7 7 7 0 0 0 7-7 7 7 0 0 0-7-7 7 7 0 0 0-7 7zm-7.4-43.5a7 7 0 0 0 7 7 7 7 0 0 0 7-7 7 7 0 0 0-7-7 7 7 0 0 0-7 7zm-15.5-40.1a7 7 0 0 0 7 7 7 7 0 0 0 7-7 7 7 0 0 0-7-7 7 7 0 0 0-7 7zm21.3 68.8a7 7 0 0 0 7 7 7 7 0 0 0 7-7 7 7 0 0 0-7-7 7 7 0 0 0-7 7zm-10.2-42.5a7 7 0 0 0 7 7 7 7 0 0 0 7-7 7 7 0 0 0-7-7 7 7 0 0 0-7 7zm-17.9-38.8a7 7 0 0 0 7 7 7 7 0 0 0 7-7 7 7 0 0 0-7-7 7 7 0 0 0-7 7zm-15.8-23.4a7 7 0 0 0 7 7 7 7 0 0 0 7-7 7 7 0 0 0-7-7 7 7 0 0 0-7 7zm-28.9-30.8a7 7 0 0 0 7 7 7 7 0 0 0 7-7 7 7 0 0 0-7-7 7 7 0 0 0-7 7zm-10.9-9a7 7 0 0 0 7 7 7 7 0 0 0 7-7 7 7 0 0 0-7-7 7 7 0 0 0-7 7zm-23.4-15.8a7 7 0 0 0 7 7 7 7 0 0 0 7-7 7 7 0 0 0-7-7 7 7 0 0 0-7 7zm-12.5-6.81a7 7 0 0 0 7 7 7 7 0 0 0 7-7 7 7 0 0 0-7-7 7 7 0 0 0-7 7zm-26.3-11.1a7 7 0 0 0 7 7 7 7 0 0 0 7-7 7 7 0 0 0-7-7 7 7 0 0 0-7 7zm-42.5-10.2a7 7 0 0 0 7 7 7 7 0 0 0 7-7 7 7 0 0 0-7-7 7 7 0 0 0-7 7zm28.6 5.86a7 7 0 0 0 7 7 7 7 0 0 0 7-7 7 7 0 0 0-7-7 7 7 0 0 0-7 7zm-43.5-7.4a7 7 0 0 0 7 7 7 7 0 0 0 7-7 7 7 0 0 0-7-7 7 7 0 0 0-7 7zm150 74.4a7 7 0 0 0 7 7 7 7 0 0 0 7-7 7 7 0 0 0-7-7 7 7 0 0 0-7 7z" stop-color="#000000" style="font-variation-settings:normal"/>
    </g>
   </g>
   <g transform="translate(-349 -221)" stroke="#000" stroke-width="5">
    <g fill="none">
     <path d="m650 742h23.4" stop-color="#000000" style="font-variation-settings:normal"/>
     <path d="m736 725-19.9 8.41" stop-color="#000000" style="font-variation-settings:normal"/>
     <path d="m736 725 19.9-8.41" stop-color="#000000" style="font-variation-settings:normal"/>
     <path d="m806 678-15 15" stop-color="#000000" style="font-variation-settings:normal"/>
     <path d="m806 678 15-15" stop-color="#000000" style="font-variation-settings:normal"/>
     <path d="m853 608-8.41 19.9" stop-color="#000000" style="font-variation-settings:normal"/>
     <path d="m853 608 8.41-19.9" stop-color="#000000" style="font-variation-settings:normal"/>
     <path d="m870 522v23.4" stop-color="#000000" style="font-variation-settings:normal"/>
    </g>
    <path d="m870 536-14.1-14.1 14.1-14.1 14.1 14.1zm-7.29 81.5h-20v-20h20zm-47.1 69.9h-20v-20h20zm-69.9 47.1h-20v-20h20zm-95.6 21.4-14.1-14.1 14.1-14.1 14.1 14.1z" fill="#fff" fill-rule="evenodd" stop-color="#000000" style="font-variation-settings:normal"/>
    <path d="m863 552a7 7 0 0 1 7-7 7 7 0 0 1 7 7 7 7 0 0 1-7 7 7 7 0 0 1-7-7zm-6.16 28.9a7 7 0 0 1 7-7 7 7 0 0 1 7 7 7 7 0 0 1-7 7 7 7 0 0 1-7-7zm-22.3 52.6a7 7 0 0 1 7-7 7 7 0 0 1 7 7 7 7 0 0 1-7 7 7 7 0 0 1-7-7zm-16.1 23.7a7 7 0 0 1 7-7 7 7 0 0 1 7 7 7 7 0 0 1-7 7 7 7 0 0 1-7-7zm-39.8 39.8a7 7 0 0 1 7-7 7 7 0 0 1 7 7 7 7 0 0 1-7 7 7 7 0 0 1-7-7zm-23.7 16.1a7 7 0 0 1 7-7 7 7 0 0 1 7 7 7 7 0 0 1-7 7 7 7 0 0 1-7-7zm-52.6 22.3a7 7 0 0 1 7-7 7 7 0 0 1 7 7 7 7 0 0 1-7 7 7 7 0 0 1-7-7zm-28.9 6.16a7 7 0 0 1 7-7 7 7 0 0 1 7 7 7 7 0 0 1-7 7 7 7 0 0 1-7-7z" fill="#fff" fill-rule="evenodd" stop-color="#000000" style="font-variation-settings:normal"/>
   </g>
   <g transform="translate(-349 -221)" stroke="#000" stroke-width="5">
    <g fill="none">
     <path d="m630 742h-53.8" stop-color="#000000" style="font-variation-settings:normal"/>
     <path d="m474 678 34.9 34.9" stop-color="#000000" style="font-variation-settings:normal"/>
     <path d="m474 678-34.9-34.9" stop-color="#000000" style="font-variation-settings:normal"/>
     <path d="m410 522v53.8" stop-color="#000000" style="font-variation-settings:normal"/>
    </g>
    <path d="m417 583a7 7 0 0 0-7-7 7 7 0 0 0-7 7 7 7 0 0 0 7 7 7 7 0 0 0 7-7zm24.6 55a7 7 0 0 0-7-7 7 7 0 0 0-7 7 7 7 0 0 0 7 7 7 7 0 0 0 7-7zm79.6 79.6a7 7 0 0 0-7-7 7 7 0 0 0-7 7 7 7 0 0 0 7 7 7 7 0 0 0 7-7zm55 24.6a7 7 0 0 0-7-7 7 7 0 0 0-7 7 7 7 0 0 0 7 7 7 7 0 0 0 7-7z" fill="#fff" fill-rule="evenodd" stop-color="#000000" style="font-variation-settings:normal"/>
    <path d="m410 536 14.1-14.1-14.1-14.1-14.1 14.1zm54.4 151h20v-20h-20zm166 68.6 14.1-14.1-14.1-14.1-14.1 14.1z" fill="#fff" fill-rule="evenodd" stop-color="#000000" style="font-variation-settings:normal"/>
   </g>
   <g transform="translate(-349 -221)" stroke="#000" stroke-width="5">
    <path d="m630 282h-115" fill="none" stop-color="#000000"/>
    <path d="m410 502v-115" fill="none" stop-color="#000000"/>
    <g fill="#fff" fill-rule="evenodd">
     <path d="m410 488 14.1 14.1-14.1 14.1-14.1-14.1zm220-220 14.1 14.1-14.1 14.1-14.1-14.1z" stop-color="#000000"/>
     <path d="m417 380a7 7 0 0 1-7 7 7 7 0 0 1-7-7 7 7 0 0 1 7-7 7 7 0 0 1 7 7zm98.5-98.5a7 7 0 0 1-7 7 7 7 0 0 1-7-7 7 7 0 0 1 7-7 7 7 0 0 1 7 7z" stop-color="#000000"/>
    </g>
   </g>
  </g>
 </g>
</svg>
