<?xml version="1.0" encoding="UTF-8"?>
<svg width="985" height="411" version="1.1" viewBox="0 0 985 411" xmlns="http://www.w3.org/2000/svg">
 <g>
  <g transform="translate(8,8)" fill="#8dccbf" stop-color="#000000" style="font-variation-settings:normal">
   <path d="m10 229 60.4-15.4q7.61 36.2 39.1 36.2 24.5 0 24.5-18.4 0-9.66-5.75-14.9-5.59-5.49-20.2-9.65-55.8-15.1-71.6-39.5t-15.8-57.3q0-42.4 22.7-70.4 22.8-28.1 65.6-28.1 64.8 0 85.6 73.5l-53.9 23q-8.39-30.1-34-30.1-21.3 0-21.3 18.7 0 8.34 4.82 12.9 4.82 4.61 18.6 8.78 38.1 11.4 54.1 20.2 16 8.78 26.7 30.1 10.7 21.1 10.7 49.8 0 45.4-26.1 73.7-26.1 28.1-68.5 28.1-77.5 0-95.7-91.3z" stop-color="#000000" style="font-variation-settings:normal"/>
   <path d="m340 257h-47.7q-1.76-11.5-1.76-25.2-13.6 28.9-41 28.9-22.6 0-33.9-16.3-11.2-16.3-11.2-37.4 0-28.5 18.3-46.1 18.4-17.7 65.3-21.3v-4.08q0-11.9-3.89-15.8-3.77-3.9-11.2-3.9-17.3 0-19.3 19.7l-45.7-6.03q9.79-56.6 66.6-56.6 15.4 0 28.4 4.43 12.9 4.26 20.5 13.5 7.53 9.22 10 19.5 2.64 10.3 2.64 39.5v72q0 20.6 3.89 35.1zm-52-84.4q-32 4.79-32 28.9 0 16.3 12.7 16.3 8.03 0 13.7-6.74 5.65-6.74 5.65-29.8z" stop-color="#000000" style="font-variation-settings:normal"/>
   <path d="m517 16.6-65.9 300h-66.3l-68.7-300h68.7l33.4 163q3.42 14.5 6.06 28.5l39.1-192z" stop-color="#000000" style="font-variation-settings:normal"/>
   <path d="m631 257h-47.7q-1.76-11.5-1.76-25.2-13.6 28.9-41 28.9-22.6 0-33.9-16.3-11.2-16.3-11.2-37.4 0-28.5 18.3-46.1 18.4-17.7 65.3-21.3v-4.08q0-11.9-3.89-15.8-3.77-3.9-11.2-3.9-17.3 0-19.3 19.7l-45.7-6.03q9.79-56.6 66.6-56.6 15.4 0 28.4 4.43 12.9 4.26 20.5 13.5 7.53 9.22 10 19.5 2.64 10.3 2.64 39.5v72q0 20.6 3.89 35.1zm-52-84.4q-32 4.79-32 28.9 0 16.3 12.7 16.3 8.03 0 13.7-6.74 5.65-6.74 5.65-29.8z" stop-color="#000000" style="font-variation-settings:normal"/>
   <path d="m826 148v168h-31.8q-3.88-18.7-8.54-31.4-19.7 36-58.4 36-41 0-67.4-40.4-26.4-40.6-26.4-110 0-67.1 25.5-113 25.6-45.9 76.1-45.9 37.9 0 61 27.2t30 77.2l-63.1 8.78q-4.66-46.7-29-46.7-32 0-32 86 0 52 10.3 68.7 10.3 16.5 24.9 16.5 11.8 0 20-10.1 8.39-10.1 8.54-27.6h-35.1v-63.6z" stop-color="#000000" style="font-variation-settings:normal"/>
   <path d="m922 192 46.7 4.43q-4.14 26.6-21.2 45.4-16.9 18.6-45.9 18.6-32.3 0-51.5-26.2-19.2-26.4-19.2-65.4 0-40.4 19-68.3 19-27.8 50.6-27.8 30.6 0 49.4 26.2 19 26.2 19 71.4 0 3.72-0.125 10.3h-85.5q0.251 17 4.27 25.4 4.02 8.16 15.3 8.16 16.3 0 19.2-22.2zm-3.26-46.8q-0.125-18.3-5.27-24.5-5.02-6.38-12.6-6.38-17.8 0-17.8 30.8z" stop-color="#000000" style="font-variation-settings:normal"/>
  </g>
  <g transform="translate(8,8)" fill="#00593e">
   <path d="m0 217 60.4-15.4q7.61 36.2 39.1 36.2 24.5 0 24.5-18.4 0-9.66-5.75-14.9-5.59-5.49-20.2-9.65-55.8-15.1-71.6-39.5t-15.8-57.3q0-42.4 22.7-70.4 22.8-28.1 65.6-28.1 64.8 0 85.6 73.5l-53.9 23q-8.39-30.1-34-30.1-21.3 0-21.3 18.7 0 8.34 4.82 12.9 4.82 4.61 18.6 8.78 38.1 11.4 54.1 20.2 16 8.78 26.7 30.1 10.7 21.1 10.7 49.8 0 45.4-26.1 73.7-26.1 28.1-68.5 28.1-77.5 0-95.7-91.3z"/>
   <path d="m330 245h-47.7q-1.76-11.5-1.76-25.2-13.6 28.9-41 28.9-22.6 0-33.9-16.3-11.2-16.3-11.2-37.4 0-28.5 18.3-46.1 18.4-17.7 65.3-21.3v-4.08q0-11.9-3.89-15.8-3.77-3.9-11.2-3.9-17.3 0-19.3 19.7l-45.7-6.03q9.79-56.6 66.6-56.6 15.4 0 28.4 4.43 12.9 4.26 20.5 13.5 7.53 9.22 10 19.5 2.64 10.3 2.64 39.5v72q0 20.6 3.89 35.1zm-52-84.4q-32 4.79-32 28.9 0 16.3 12.7 16.3 8.03 0 13.7-6.74 5.65-6.74 5.65-29.8z"/>
   <path d="m507 4.61-65.9 300h-66.3l-68.7-300h68.7l33.4 163q3.42 14.5 6.06 28.5l39.1-192z"/>
   <path d="m621 245h-47.7q-1.76-11.5-1.76-25.2-13.6 28.9-41 28.9-22.6 0-33.9-16.3-11.2-16.3-11.2-37.4 0-28.5 18.3-46.1 18.4-17.7 65.3-21.3v-4.08q0-11.9-3.89-15.8-3.77-3.9-11.2-3.9-17.3 0-19.3 19.7l-45.7-6.03q9.79-56.6 66.6-56.6 15.4 0 28.4 4.43 12.9 4.26 20.5 13.5 7.53 9.22 10 19.5 2.64 10.3 2.64 39.5v72q0 20.6 3.89 35.1zm-52-84.4q-32 4.79-32 28.9 0 16.3 12.7 16.3 8.03 0 13.7-6.74 5.65-6.74 5.65-29.8z"/>
   <path d="m816 136v168h-31.8q-3.88-18.7-8.54-31.4-19.7 36-58.4 36-41 0-67.4-40.4-26.4-40.6-26.4-110 0-67.1 25.5-113 25.6-45.9 76.1-45.9 37.9 0 61 27.2t30 77.2l-63.1 8.78q-4.66-46.7-29-46.7-32 0-32 86 0 52 10.3 68.7 10.3 16.5 24.9 16.5 11.8 0 20-10.1 8.39-10.1 8.54-27.6h-35.1v-63.6z"/>
   <path d="m912 180 46.7 4.43q-4.14 26.6-21.2 45.4-16.9 18.6-45.9 18.6-32.3 0-51.5-26.2-19.2-26.4-19.2-65.4 0-40.4 19-68.3 19-27.8 50.6-27.8 30.6 0 49.4 26.2 19 26.2 19 71.4 0 3.72-0.125 10.3h-85.5q0.251 17 4.27 25.4 4.02 8.16 15.3 8.16 16.3 0 19.2-22.2zm-3.26-46.8q-0.125-18.3-5.27-24.5-5.02-6.38-12.6-6.38-17.8 0-17.8 30.8z"/>
  </g>
  <g fill="#00593e" aria-label="Brutal Path Reduction">
   <path d="m123 341h20.3q7.13 0 10.7 1.13 3.65 1.13 6.09 4.96 2.48 3.83 2.48 9.53 0 9.96-8.48 12.8 10.1 3.57 10.1 14.6 0 5.79-2.74 9.79-2.74 3.96-6.79 5.31-4 1.31-11.4 1.31h-20.3zm12.5 24h4.22q6.31 0 7.92-2.26 1.65-2.26 1.65-5.18 0-2.7-1.65-4.79-1.61-2.13-6.96-2.13h-5.18zm0 25.2h6.4q9.01 0 9.01-7.74 0-4.31-2.26-6.05-2.22-1.78-6.74-1.78h-6.4z" stop-color="#000000" style="font-variation-settings:normal"/>
   <path d="m172 356h10.8v10.6q2.91-11.2 10.4-11.2 0.914 0 2.09 0.218v12q-1.35-0.174-2.04-0.174-8.96 0-8.96 13.6v18.9h-12.3z" stop-color="#000000" style="font-variation-settings:normal"/>
   <path d="m199 356h12.3v28.2q0 4.26 0.783 5.7 0.783 1.44 3.39 1.44 2.39 0 3.61-1.17 1.26-1.17 1.52-3.22 0.261-2.09 0.261-8.53v-22.4h12.3v43.9h-11.5v-6q-2.61 4.48-5.22 5.7-2.57 1.22-6.09 1.22-4.74 0-7.27-1.96t-3.26-4.96q-0.74-3-0.74-9.35z" stop-color="#000000" style="font-variation-settings:normal"/>
   <path d="m244 343 11.9-0.392v13.9h8.09v9.66h-8.09v16.1q0 4.48 0.174 5.83 0.218 1.31 1.31 2.22 1.13 0.87 3.74 0.87 1.39 0 3.48-0.087v9.31q-4.09 0.914-7.48 0.914-5.57 0-8.53-2.13-2.96-2.13-3.79-5.35-0.827-3.22-0.827-10.2v-17.5h-4.87v-9.66h4.87z" stop-color="#000000" style="font-variation-settings:normal"/>
   <path d="m282 370-11.6-1.13q0.827-6.61 5.61-10.2 4.83-3.57 12.1-3.57 6.18 0 9.92 2.39 3.74 2.35 4.7 5.48 1 3.13 1 9.7v17.5q0 8.18 0.74 9.75h-11.4q-0.609-1.78-0.609-6.74-4.05 7.66-12.1 7.66-5.13 0-8.35-3.05-3.22-3.09-3.22-8.96 0-7.35 4.87-11.4 4.87-4.05 17.8-4.83v-1.65q0-4.39-0.914-6.09-0.87-1.7-3.44-1.7-4.7 0-5.18 6.74zm9.53 8.96q-5.35 0.609-7.66 2.39-2.26 1.74-2.26 5.92 0 5.57 4.09 5.57 2.22 0 4-2.48 1.83-2.52 1.83-9.22z" stop-color="#000000" style="font-variation-settings:normal"/>
   <path d="m313 341h12.3v59.4h-12.3z" stop-color="#000000" style="font-variation-settings:normal"/>
   <path d="m352 341h17.1q7.79 0 12.1 1.31 4.31 1.31 7.22 5.92 2.91 4.57 2.91 11.4 0 6.53-2.35 10.8-2.35 4.26-6.53 6.18-4.13 1.87-12.7 1.87h-4.61v22h-13.1zm13.1 9.61v17.6h4.05q5.35 0 6.87-2.48 1.57-2.48 1.57-6.44 0-3.35-1.22-5.39-1.17-2.09-2.78-2.65-1.57-0.609-4.44-0.609z" stop-color="#000000" style="font-variation-settings:normal"/>
   <path d="m407 370-11.6-1.13q0.827-6.61 5.61-10.2 4.83-3.57 12.1-3.57 6.18 0 9.92 2.39 3.74 2.35 4.7 5.48 1 3.13 1 9.7v17.5q0 8.18 0.74 9.75h-11.4q-0.609-1.78-0.609-6.74-4.05 7.66-12.1 7.66-5.13 0-8.35-3.05-3.22-3.09-3.22-8.96 0-7.35 4.87-11.4 4.87-4.05 17.8-4.83v-1.65q0-4.39-0.914-6.09-0.87-1.7-3.44-1.7-4.7 0-5.18 6.74zm9.53 8.96q-5.35 0.609-7.66 2.39-2.26 1.74-2.26 5.92 0 5.57 4.09 5.57 2.22 0 4-2.48 1.83-2.52 1.83-9.22z" stop-color="#000000" style="font-variation-settings:normal"/>
   <path d="m440 343 11.9-0.392v13.9h8.09v9.66h-8.09v16.1q0 4.48 0.174 5.83 0.218 1.31 1.31 2.22 1.13 0.87 3.74 0.87 1.39 0 3.48-0.087v9.31q-4.09 0.914-7.48 0.914-5.57 0-8.53-2.13-2.96-2.13-3.79-5.35-0.827-3.22-0.827-10.2v-17.5h-4.87v-9.66h4.87z" stop-color="#000000" style="font-variation-settings:normal"/>
   <path d="m466 341h12.3v20.1q3.31-5.57 10.8-5.57 4.48 0 7.05 2.09 2.61 2.09 3.31 5.31 0.696 3.18 0.696 9.27v28.2h-12.3v-28.2q0-4.31-0.827-5.7-0.783-1.44-3.31-1.44-2.48 0-3.96 1.35-1.48 1.35-1.48 6.13v27.8h-12.3z" stop-color="#000000" style="font-variation-settings:normal"/>
   <path d="m526 341h18.7q5.44 0 8.31 0.522 2.91 0.479 5.87 2.7 2.96 2.18 4.61 6 1.7 3.78 1.7 8.53 0 11.1-8.35 15.7l10.9 26h-14.2l-7.92-23.5h-6.53v23.5h-13.1zm13.1 9.61v16.7h5.74q7.66 0 7.66-8.57 0-2.96-1.13-4.83-1.13-1.91-2.65-2.57-1.48-0.696-4.39-0.696z" stop-color="#000000" style="font-variation-settings:normal"/>
   <path d="m606 380h-23.1v2.44q0 5.92 1.61 7.92 1.61 2 4.22 2 5.61 0 6.31-7.53l10.9 0.696q-2.91 15.3-17.4 15.3-8.96 0-13.6-6.05-4.66-6.05-4.66-16.2 0-11.4 4.92-17.4 4.96-6.05 13.3-6.05 7.48 0 12.5 5.35 5.05 5.31 5.05 19.5zm-11.6-7.09q0.0435-0.783 0.0435-1.22 0-8.48-5.74-8.48-5.66 0-5.7 9.7z" stop-color="#000000" style="font-variation-settings:normal"/>
   <path d="m635 341h12.1v59.4h-11.4v-7.27q-2.78 7.87-10 7.87-7.09 0-10.6-6.18t-3.48-16.2q0-11.4 3.96-17.1 4-5.66 10.7-5.66 6.13 0 8.74 4.7zm0 33.8q0-6.48-1.39-8.66-1.35-2.22-3.96-2.22-3.09 0-4.22 3.05-1.09 3.05-1.09 12.6 0 7.13 1.22 10 1.22 2.87 4 2.87 2.35 0 3.87-1.91 1.57-1.96 1.57-7.96z" stop-color="#000000" style="font-variation-settings:normal"/>
   <path d="m656 356h12.3v28.2q0 4.26 0.783 5.7 0.783 1.44 3.39 1.44 2.39 0 3.61-1.17 1.26-1.17 1.52-3.22 0.261-2.09 0.261-8.53v-22.4h12.3v43.9h-11.5v-6q-2.61 4.48-5.22 5.7-2.57 1.22-6.09 1.22-4.74 0-7.27-1.96t-3.26-4.96q-0.74-3-0.74-9.35z" stop-color="#000000" style="font-variation-settings:normal"/>
   <path d="m731 373-11.4 0.435q-0.261-4.05-1.31-6.09-1.04-2.09-3.52-2.09-6.18 0-6.18 13 0 7.53 1.48 10.5 1.52 3 4.48 3 4.61 0 5.05-8.14l11.4 0.74q-1.52 17.3-17.2 17.3-8.48 0-13-5.7-4.48-5.74-4.48-17.1 0-11.2 4.7-17.1 4.74-5.87 13.3-5.87 15.4 0 16.7 17.1z" stop-color="#000000" style="font-variation-settings:normal"/>
   <path d="m740 343 11.9-0.392v13.9h8.09v9.66h-8.09v16.1q0 4.48 0.174 5.83 0.218 1.31 1.31 2.22 1.13 0.87 3.74 0.87 1.39 0 3.48-0.087v9.31q-4.09 0.914-7.48 0.914-5.57 0-8.53-2.13-2.96-2.13-3.79-5.35-0.827-3.22-0.827-10.2v-17.5h-4.87v-9.66h4.87z" stop-color="#000000" style="font-variation-settings:normal"/>
   <path d="m778 353h-12.4v-12.1h12.4zm-12.4 3.61h12.3v43.9h-12.3z" stop-color="#000000" style="font-variation-settings:normal"/>
   <path d="m820 378q0 22.9-17.8 22.9-17.9 0-17.9-22.9 0-22.8 17.9-22.8 17.8 0 17.8 22.8zm-12.7 0q0-8.4-1.17-11.4-1.13-2.96-4-2.96-2.78 0-4 2.83-1.22 2.78-1.22 11.5 0 8.05 1.04 11.2t4.18 3.13q3 0 4.09-3.09 1.09-3.13 1.09-11.2z" stop-color="#000000" style="font-variation-settings:normal"/>
   <path d="m828 356h11.6v6q3.05-6.87 11-6.87 4.31 0 7.09 1.96 2.83 1.91 3.61 4.92 0.783 3 0.783 9.14v28.8h-12.3v-28.8q0-4.44-1.13-5.48-1.13-1.04-3.05-1.04-3.31 0-4.35 2.04-1.04 2-1.04 7.53v25.8h-12.3z" stop-color="#000000" style="font-variation-settings:normal"/>
  </g>
 </g>
</svg>
